<svg version="1.1" id="Layer_1" xmlns="http://www.w3.org/2000/svg" xmlns:xlink="http://www.w3.org/1999/xlink" x="0px" y="0px"
	 width="100%" viewBox="0 0 1443 1297" enable-background="new 0 0 1443 1297" xml:space="preserve">
<path fill="#FFFFFF" opacity="1.000000" stroke="none" 
	d="
M1.000000,1193.000000 
	C1.000000,795.752319 1.000000,398.504608 1.000000,1.000000 
	C233.697525,1.000000 466.395142,1.000000 699.379395,1.407396 
	C694.088135,2.208543 688.486145,2.393894 682.937317,3.037618 
	C669.682678,4.575295 656.301758,5.569117 643.248047,8.169391 
	C622.426392,12.317035 601.561218,16.671431 581.199402,22.603168 
	C550.032654,31.682571 520.223267,44.390472 491.677948,59.992931 
	C464.456665,74.871704 437.963867,90.899185 413.996460,110.666496 
	C397.682983,124.121162 381.905853,138.243942 366.218018,152.431915 
	C358.232544,159.653931 353.588531,168.942154 354.050568,180.002274 
	C354.846161,199.047241 361.750427,215.496429 376.542358,227.888168 
	C386.380646,236.130066 397.846375,238.463638 410.215729,234.315216 
	C426.773895,228.761978 441.029266,219.012421 454.726532,208.598251 
	C470.400452,196.681152 485.276123,183.716858 500.898163,171.728134 
	C522.144531,155.423172 544.075989,140.000168 569.184082,130.107712 
	C584.362366,124.127541 599.769653,118.438065 615.509827,114.259438 
	C630.144043,110.374405 645.281860,108.086266 660.334106,106.157440 
	C676.246033,104.118439 692.297791,102.784676 708.327820,102.173126 
	C721.546570,101.668831 734.829163,102.512535 748.071472,103.052956 
	C758.083679,103.461563 768.144287,103.818459 778.063721,105.114235 
	C795.417786,107.381180 812.929504,109.282944 829.927856,113.253044 
	C863.792175,121.162338 895.788574,134.224045 924.433044,154.185089 
	C943.965576,167.796417 962.435730,182.922287 981.619812,197.046387 
	C1002.048767,212.086914 1022.733765,226.569519 1049.239136,229.215591 
	C1059.348022,230.224777 1068.414795,228.618179 1075.624512,221.685669 
	C1088.870239,208.949402 1090.189575,192.750153 1086.377808,175.999115 
	C1082.963989,160.996429 1074.275635,148.469421 1063.821045,137.637909 
	C1053.088135,126.518150 1041.430786,116.219124 1029.599121,106.247665 
	C1010.277466,89.963692 988.715149,76.849838 966.371338,65.270691 
	C947.720215,55.605190 928.655762,46.497749 909.093872,38.893528 
	C887.624268,30.547741 865.533203,23.667540 843.408508,17.188520 
	C829.528564,13.123911 815.173950,10.448607 800.875732,8.106041 
	C784.988647,5.503173 768.922180,3.998296 752.939331,1.971139 
	C751.934692,1.843721 750.978638,1.332606 750.000000,0.999998 
	C981.283264,1.000000 1212.566528,1.000000 1444.000000,1.000000 
	C1444.000000,396.030914 1444.000000,791.061829 1443.622681,1186.407227 
	C1442.884521,1184.992188 1442.665649,1183.218384 1442.140503,1181.540405 
	C1437.278564,1166.002075 1426.178223,1156.953857 1411.207764,1151.982422 
	C1395.247681,1146.682007 1378.550537,1146.513916 1362.050781,1145.060547 
	C1357.481079,1144.657959 1352.845947,1144.999268 1349.186279,1144.999268 
	C1347.764526,1122.661499 1346.619019,1100.929321 1344.897705,1079.242798 
	C1344.075439,1068.885864 1342.817871,1058.471313 1340.595825,1048.337524 
	C1336.530029,1029.794678 1331.740601,1011.405151 1327.001221,993.016479 
	C1319.366577,963.393738 1308.137085,935.042847 1295.553223,907.246887 
	C1288.848267,892.436462 1281.556274,877.853943 1273.777710,863.578064 
	C1265.609741,848.587402 1256.940186,833.833923 1247.777100,819.430115 
	C1233.954346,797.701355 1219.338257,776.495483 1202.460083,756.954956 
	C1190.053467,742.591125 1178.254883,727.650024 1165.156128,713.950256 
	C1150.985352,699.129333 1135.835327,685.215271 1120.699951,671.356140 
	C1110.343506,661.873047 1099.684937,652.618713 1088.432983,644.240234 
	C1074.087646,633.558167 1059.338135,623.331116 1044.152344,613.889832 
	C1028.580566,604.208557 1012.574646,595.110779 996.196960,586.874695 
	C981.308472,579.387512 965.950256,572.613892 950.285461,566.945068 
	C929.032043,559.253784 907.469421,552.267273 885.696594,546.210815 
	C869.717957,541.766113 853.233948,539.055481 836.889099,536.038513 
	C825.561646,533.947632 814.095825,532.590759 802.675964,531.021362 
	C795.829895,530.080383 788.953186,529.361389 781.552246,528.478455 
	C782.379456,527.391113 782.821350,526.749146 783.323914,526.158813 
	C793.069031,514.709167 796.197266,501.302673 793.314148,486.914734 
	C788.766418,464.220306 772.468994,451.906616 752.312927,444.111969 
	C735.773254,437.715881 718.590210,436.451141 701.000793,439.920258 
	C680.215881,444.019623 662.787109,453.211823 651.168884,471.444489 
	C645.070618,481.014526 642.913513,491.445190 644.784973,502.993652 
	C646.383301,512.856140 650.832031,521.039368 656.658752,528.653015 
	C654.154236,529.138367 651.950745,529.675293 649.715637,529.980286 
	C637.142395,531.695984 624.401672,532.597107 612.018982,535.204651 
	C591.069458,539.616211 570.086670,544.228088 549.587219,550.332092 
	C520.473511,559.001221 492.284637,570.401184 464.919617,583.642456 
	C452.597015,589.605103 440.528137,596.136658 428.612640,602.884216 
	C415.300507,610.422424 402.047791,618.120605 389.218079,626.441223 
	C374.715149,635.846924 360.428070,645.641357 346.560547,655.956909 
	C328.470978,669.413086 310.519470,683.108215 293.214569,697.546692 
	C282.020905,706.886292 271.997406,717.646240 261.628510,727.949768 
	C255.178192,734.359375 248.777969,740.860962 242.855515,747.751160 
	C230.838608,761.731750 218.432556,775.468201 207.528854,790.292297 
	C193.963760,808.734619 180.873383,827.652100 169.210464,847.331909 
	C157.728256,866.706787 147.735809,887.031677 138.130554,907.429871 
	C130.896027,922.793396 124.699150,938.720459 119.125755,954.773499 
	C110.883469,978.513916 104.652023,1002.800354 100.804153,1027.742065 
	C98.047256,1045.612061 95.882202,1063.437256 95.990547,1081.521118 
	C96.041466,1090.020264 95.756760,1098.529297 96.081390,1107.016235 
	C96.311714,1113.037842 97.320282,1119.028931 97.958366,1125.036011 
	C98.585068,1130.936035 99.182564,1136.838989 99.782059,1142.636108 
	C90.099342,1143.443970 80.763046,1144.022705 71.476730,1145.052368 
	C61.626026,1146.144531 51.642319,1146.901611 42.039738,1149.171631 
	C26.386002,1152.872192 13.818569,1161.393555 6.932743,1176.565186 
	C4.533300,1181.851929 2.953922,1187.510986 1.000000,1193.000000 
M647.738953,161.032913 
	C642.690979,162.617004 637.650696,164.225998 632.593811,165.781128 
	C596.519104,176.875137 562.431580,192.290146 530.152466,211.901993 
	C506.570648,226.229614 484.135590,241.920715 464.771057,261.719543 
	C460.371796,266.217468 457.711487,271.754364 458.131622,277.850983 
	C459.306793,294.902588 466.893616,308.736633 480.560120,319.166656 
	C495.946045,330.908875 507.704742,328.379639 520.843506,320.454895 
	C534.076660,312.473236 546.760132,303.568634 559.569946,294.899231 
	C585.583618,277.293732 612.252014,260.976929 642.720886,252.051788 
	C661.936096,246.423141 681.644043,242.822128 701.564270,242.223969 
	C730.205505,241.363922 758.918457,241.101852 787.283569,246.932404 
	C804.499573,250.471191 821.238098,255.211823 837.235840,262.616180 
	C855.288147,270.971558 871.299561,282.401276 886.413208,295.076233 
	C900.722595,307.076691 914.576233,319.652802 931.527405,327.930908 
	C941.849243,332.971558 952.494873,335.876404 964.224976,332.412598 
	C980.770813,327.526733 989.983154,310.095795 990.862610,293.515900 
	C991.657043,278.538788 985.454163,265.872437 975.449280,254.915024 
	C961.557251,239.700485 944.282532,228.809021 927.632080,217.085449 
	C899.602478,197.349884 869.407898,181.850677 837.065796,170.581589 
	C815.298523,162.997101 793.219727,156.477570 770.182373,154.007751 
	C756.203613,152.509125 742.210754,151.013748 728.185608,150.130569 
	C721.316223,149.698013 714.356079,150.619003 707.442017,151.014374 
	C703.020569,151.267212 698.536438,151.290192 694.204773,152.089905 
	C678.969971,154.902634 663.788879,158.006714 647.738953,161.032913 
M644.010437,405.488098 
	C647.439453,402.416595 650.615051,398.989044 654.341919,396.335907 
	C669.536377,385.518921 686.894226,380.787964 705.231567,380.152740 
	C718.116821,379.706390 731.060730,380.456390 743.960449,381.058746 
	C758.294800,381.728119 772.350342,384.860748 784.831604,391.704590 
	C797.494507,398.648102 809.143555,407.466553 821.103760,415.657867 
	C832.182983,423.245850 843.306763,429.057037 857.766479,427.217407 
	C881.567200,424.189392 896.188538,393.759399 885.553894,372.887543 
	C878.927368,359.882141 869.358154,349.510345 858.098938,340.768494 
	C838.042053,325.195984 816.123779,312.833435 792.019226,304.454681 
	C770.186340,296.865662 747.886841,291.823486 724.696106,293.169464 
	C712.904846,293.853790 701.144592,295.930939 689.497070,298.068848 
	C658.488708,303.760468 629.572205,315.077454 603.253235,332.439087 
	C586.235413,343.664978 571.189453,357.018341 562.342468,376.119507 
	C555.922241,389.981201 557.472595,413.120056 574.440308,421.820374 
	C579.085022,424.201996 584.053711,426.228912 589.105835,427.485260 
	C602.245300,430.752716 615.037170,430.211731 626.136536,421.278259 
	C632.139160,416.446960 637.732239,411.106781 644.010437,405.488098 
z"/>
<path fill="#730200" opacity="1.000000" stroke="none" 
	d="
M1.000000,1193.468018 
	C2.953922,1187.510986 4.533300,1181.851929 6.932743,1176.565186 
	C13.818569,1161.393555 26.386002,1152.872192 42.039738,1149.171631 
	C51.642319,1146.901611 61.626026,1146.144531 71.476730,1145.052368 
	C80.763046,1144.022705 90.099342,1143.443970 99.782059,1142.636108 
	C99.182564,1136.838989 98.585068,1130.936035 97.958366,1125.036011 
	C97.320282,1119.028931 96.311714,1113.037842 96.081390,1107.016235 
	C95.756760,1098.529297 96.041466,1090.020264 95.990547,1081.521118 
	C95.882202,1063.437256 98.047256,1045.612061 100.804153,1027.742065 
	C104.652023,1002.800354 110.883469,978.513916 119.125755,954.773499 
	C124.699150,938.720459 130.896027,922.793396 138.130554,907.429871 
	C147.735809,887.031677 157.728256,866.706787 169.210464,847.331909 
	C180.873383,827.652100 193.963760,808.734619 207.528854,790.292297 
	C218.432556,775.468201 230.838608,761.731750 242.855515,747.751160 
	C248.777969,740.860962 255.178192,734.359375 261.628510,727.949768 
	C271.997406,717.646240 282.020905,706.886292 293.214569,697.546692 
	C310.519470,683.108215 328.470978,669.413086 346.560547,655.956909 
	C360.428070,645.641357 374.715149,635.846924 389.218079,626.441223 
	C402.047791,618.120605 415.300507,610.422424 428.612640,602.884216 
	C440.528137,596.136658 452.597015,589.605103 464.919617,583.642456 
	C492.284637,570.401184 520.473511,559.001221 549.587219,550.332092 
	C570.086670,544.228088 591.069458,539.616211 612.018982,535.204651 
	C624.401672,532.597107 637.142395,531.695984 649.715637,529.980286 
	C651.950745,529.675293 654.154236,529.138367 656.658752,528.653015 
	C650.832031,521.039368 646.383301,512.856140 644.784973,502.993652 
	C642.913513,491.445190 645.070618,481.014526 651.168884,471.444489 
	C662.787109,453.211823 680.215881,444.019623 701.000793,439.920258 
	C718.590210,436.451141 735.773254,437.715881 752.312927,444.111969 
	C772.468994,451.906616 788.766418,464.220306 793.314148,486.914734 
	C796.197266,501.302673 793.069031,514.709167 783.323914,526.158813 
	C782.821350,526.749146 782.379456,527.391113 781.552246,528.478455 
	C788.953186,529.361389 795.829895,530.080383 802.675964,531.021362 
	C814.095825,532.590759 825.561646,533.947632 836.889099,536.038513 
	C853.233948,539.055481 869.717957,541.766113 885.696594,546.210815 
	C907.469421,552.267273 929.032043,559.253784 950.285461,566.945068 
	C965.950256,572.613892 981.308472,579.387512 996.196960,586.874695 
	C1012.574646,595.110779 1028.580566,604.208557 1044.152344,613.889832 
	C1059.338135,623.331116 1074.087646,633.558167 1088.432983,644.240234 
	C1099.684937,652.618713 1110.343506,661.873047 1120.699951,671.356140 
	C1135.835327,685.215271 1150.985352,699.129333 1165.156128,713.950256 
	C1178.254883,727.650024 1190.053467,742.591125 1202.460083,756.954956 
	C1219.338257,776.495483 1233.954346,797.701355 1247.777100,819.430115 
	C1256.940186,833.833923 1265.609741,848.587402 1273.777710,863.578064 
	C1281.556274,877.853943 1288.848267,892.436462 1295.553223,907.246887 
	C1308.137085,935.042847 1319.366577,963.393738 1327.001221,993.016479 
	C1331.740601,1011.405151 1336.530029,1029.794678 1340.595825,1048.337524 
	C1342.817871,1058.471313 1344.075439,1068.885864 1344.897705,1079.242798 
	C1346.619019,1100.929321 1347.764526,1122.661499 1349.186279,1144.999268 
	C1352.845947,1144.999268 1357.481079,1144.657959 1362.050781,1145.060547 
	C1378.550537,1146.513916 1395.247681,1146.682007 1411.207764,1151.982422 
	C1426.178223,1156.953857 1437.278564,1166.002075 1442.140503,1181.540405 
	C1442.665649,1183.218384 1442.884521,1184.992188 1443.622681,1186.860840 
	C1444.000000,1194.020996 1444.000000,1201.041870 1443.596680,1208.706665 
	C1443.129150,1213.009766 1443.020264,1216.669067 1443.009277,1220.328491 
	C1442.981689,1229.530029 1439.448486,1237.251709 1432.395630,1242.964355 
	C1422.042236,1251.350586 1409.639160,1255.233276 1396.628540,1255.822998 
	C1380.327881,1256.561890 1363.967896,1255.929932 1347.634399,1256.029541 
	C1338.963989,1256.082397 1338.734985,1256.147339 1336.085815,1265.040161 
	C1332.601685,1276.736328 1325.221191,1284.860107 1313.321655,1286.760620 
	C1300.407104,1288.823364 1287.200684,1289.149048 1274.104736,1289.961914 
	C1260.450684,1290.809326 1246.779297,1291.396240 1233.110474,1291.985107 
	C1216.117310,1292.717163 1199.120728,1293.370728 1182.122925,1293.988281 
	C1171.047119,1294.390747 1159.967407,1294.699341 1148.887939,1294.994141 
	C1135.144775,1295.359985 1121.401733,1295.799683 1107.655640,1295.974854 
	C1075.086914,1296.389771 1042.516724,1296.692993 1009.946533,1296.985718 
	C999.451477,1297.079956 988.954468,1296.961182 978.459229,1297.044922 
	C976.970398,1297.056763 975.486267,1297.666870 974.000000,1298.000000 
	C891.312439,1298.000000 808.624878,1298.000000 725.288818,1297.598145 
	C723.980164,1297.131470 723.320374,1297.015259 722.659607,1297.008911 
	C687.424194,1296.666870 652.188293,1296.370239 616.953308,1295.988281 
	C592.046509,1295.718262 567.140625,1295.354492 542.234863,1294.994263 
	C521.326782,1294.691650 500.419373,1294.340210 479.511841,1293.998901 
	C459.603333,1293.673950 439.694336,1293.372803 419.787018,1292.987061 
	C406.208221,1292.724243 392.632233,1292.318115 379.054352,1292.004883 
	C363.807709,1291.653076 348.559784,1291.354980 333.313354,1290.994141 
	C320.564636,1290.692383 307.817413,1290.327393 295.069183,1290.002686 
	C281.658539,1289.661133 268.246887,1289.357666 254.836868,1288.993164 
	C243.920471,1288.696411 233.007339,1288.270020 222.090088,1288.015747 
	C205.344925,1287.625610 188.596558,1287.373047 171.851273,1286.987305 
	C160.434418,1286.724243 149.015289,1286.446045 137.609177,1285.916260 
	C134.952301,1285.792969 132.240219,1284.880737 129.733521,1283.880493 
	C122.851059,1281.134155 118.638458,1275.456543 115.119606,1269.354736 
	C112.565468,1264.925781 110.110733,1261.115845 104.213043,1260.949219 
	C85.546288,1260.422119 66.883141,1259.737061 48.223972,1258.980347 
	C30.500629,1258.261963 17.407215,1249.561646 9.240972,1234.242920 
	C5.416960,1227.069336 3.681859,1218.782349 1.000002,1211.000000 
	C1.000000,1205.312012 1.000000,1199.623901 1.000000,1193.468018 
M336.597717,1132.176270 
	C336.752014,1132.432129 336.906281,1132.687988 337.990204,1132.946777 
	C360.785950,1132.654053 383.582123,1132.080322 406.377380,1132.115234 
	C530.345032,1132.305054 654.312744,1132.588623 778.279968,1132.967285 
	C815.748291,1133.081787 853.215698,1133.573242 890.682922,1133.947632 
	C919.151001,1134.232056 947.617981,1134.625977 976.085876,1134.932739 
	C1010.219849,1135.300537 1044.354492,1135.609741 1078.488403,1135.977661 
	C1105.623169,1136.270142 1132.757446,1136.866577 1159.891968,1136.866333 
	C1191.026367,1136.866089 1222.163696,1136.537109 1253.293945,1136.006226 
	C1274.730591,1135.640869 1296.154663,1134.587402 1317.590088,1134.087036 
	C1321.736816,1133.990356 1323.296753,1132.681030 1322.981812,1128.543335 
	C1321.924561,1114.655151 1321.855713,1100.635620 1319.879395,1086.886353 
	C1316.702148,1064.781250 1313.287109,1042.622314 1308.214233,1020.896606 
	C1298.351929,978.659180 1282.749146,938.339844 1263.613159,899.464172 
	C1244.697876,861.036865 1223.026245,824.167908 1196.219116,790.674377 
	C1178.176636,768.131470 1159.258667,746.247498 1139.925293,724.796021 
	C1129.490967,713.218445 1117.476196,703.043701 1105.969482,692.458984 
	C1085.382568,673.521790 1063.088379,656.774170 1039.742065,641.394043 
	C1002.170105,616.642456 962.057617,597.083435 919.437561,582.729309 
	C886.512817,571.640442 852.927917,563.105957 818.388367,558.945801 
	C795.864075,556.232849 773.279907,553.008423 750.656860,552.380066 
	C722.932312,551.610107 695.087891,552.491943 667.393188,554.224548 
	C647.954346,555.440613 628.556091,558.593445 609.355652,562.072998 
	C564.806274,570.146301 522.364197,584.956543 481.488373,604.271667 
	C445.004913,621.511230 410.402710,641.995789 377.311401,665.091309 
	C349.490875,684.508179 322.455048,704.932678 297.627899,728.071472 
	C274.479736,749.645447 253.083176,772.922852 233.705948,797.971436 
	C201.700760,839.343933 174.868469,883.781921 154.902069,932.232727 
	C144.250229,958.080566 135.533432,984.528687 129.781952,1011.935669 
	C125.793282,1030.942383 123.193748,1050.069092 121.727699,1069.463989 
	C120.315025,1088.152832 121.609200,1106.624390 123.099213,1125.159302 
	C123.346809,1128.239258 124.479019,1130.074341 128.335541,1130.176636 
	C138.110504,1130.435913 147.862122,1131.686401 157.635590,1131.868164 
	C175.130142,1132.193481 192.633850,1132.029663 210.133774,1132.050049 
	C211.174072,1132.051270 212.214569,1131.871582 212.900513,1131.808594 
	C211.153473,1127.511841 209.089493,1123.679810 208.021576,1119.587769 
	C203.983109,1104.113281 205.988022,1088.520142 208.271759,1073.100342 
	C212.217468,1046.458984 219.168076,1020.487976 227.595566,994.940186 
	C241.531921,952.692261 258.292145,911.584656 279.807739,872.604736 
	C293.058838,848.597656 306.561523,824.642822 321.533295,801.696777 
	C335.852692,779.750610 351.612030,758.659851 367.878662,738.095032 
	C380.740997,721.834045 394.846527,706.468262 409.314636,691.594788 
	C420.058533,680.549927 431.911591,670.490601 443.903168,660.773010 
	C466.122314,642.767456 490.025696,627.544434 518.011475,619.876465 
	C534.451355,615.371948 551.010437,614.109131 567.622498,618.803711 
	C575.964355,621.161133 576.764709,625.269836 570.936096,631.592773 
	C552.797729,651.269409 534.156860,670.535583 516.937073,690.993042 
	C494.994263,717.061584 475.269928,744.872131 457.113251,773.749695 
	C438.677856,803.070435 421.735626,833.191956 407.057861,864.603027 
	C390.346100,900.367004 376.119720,937.034668 365.126984,974.954895 
	C352.325439,1019.114624 343.302673,1063.845825 343.874847,1110.126465 
	C343.972107,1117.991699 342.307495,1125.663330 336.597717,1132.176270 
M766.500000,1170.053101 
	C601.371460,1169.721558 436.242920,1169.420410 271.114563,1169.020020 
	C250.480347,1168.969971 229.844833,1168.004517 209.214371,1168.140381 
	C158.504593,1168.474121 107.701241,1165.648193 57.151436,1172.037598 
	C47.449142,1173.264038 38.045574,1175.580688 31.917097,1184.221802 
	C24.375076,1194.855957 24.435270,1210.689087 31.859726,1222.304443 
	C35.678322,1228.278687 40.416775,1232.965942 48.000465,1233.478027 
	C55.943935,1234.014404 63.885490,1234.660034 71.839104,1234.947021 
	C85.466591,1235.438721 99.106583,1235.586792 112.733551,1236.089722 
	C118.190857,1236.291138 123.328789,1237.939209 126.882217,1242.405396 
	C130.592316,1247.068604 133.836304,1252.103638 137.570084,1256.746094 
	C138.759689,1258.225098 140.808334,1259.798218 142.558807,1259.915771 
	C155.641846,1260.794556 168.743881,1261.451050 181.849121,1261.924072 
	C203.278214,1262.697510 224.712830,1263.329102 246.147675,1263.928711 
	C272.079407,1264.654175 298.013641,1265.290771 323.947144,1265.952637 
	C337.413635,1266.296265 350.880493,1266.628906 364.347870,1266.934937 
	C379.980988,1267.289917 395.614655,1267.621704 411.248505,1267.942871 
	C428.048431,1268.288086 444.848450,1268.630981 461.649139,1268.935059 
	C481.449005,1269.293579 501.249420,1269.622803 521.049988,1269.939941 
	C542.683472,1270.286621 564.316833,1270.655273 585.951294,1270.923950 
	C616.751038,1271.306519 647.552124,1271.928711 678.351929,1271.885620 
	C802.482971,1271.712036 926.613708,1271.347534 1050.744385,1270.975098 
	C1063.878784,1270.935791 1077.011719,1270.380981 1090.145264,1270.065308 
	C1118.244995,1269.390259 1146.347046,1268.800293 1174.443481,1268.008545 
	C1191.880615,1267.517334 1209.315430,1266.854492 1226.739990,1266.028198 
	C1252.440674,1264.809692 1278.125122,1263.223999 1303.831787,1262.169434 
	C1308.759644,1261.967407 1311.241577,1260.247559 1312.263306,1255.669800 
	C1312.659180,1253.896118 1313.330933,1252.166626 1314.029907,1250.480469 
	C1318.005005,1240.892578 1324.141968,1233.643555 1334.996460,1231.858765 
	C1339.889771,1231.054321 1344.835205,1230.158447 1349.768677,1230.084717 
	C1364.264648,1229.867920 1378.768433,1229.905518 1393.265015,1230.119629 
	C1400.859741,1230.231567 1407.841309,1228.282593 1414.066284,1224.267822 
	C1415.993530,1223.024902 1417.346680,1219.903320 1417.720825,1217.452393 
	C1418.433350,1212.783203 1417.701782,1207.877686 1418.544434,1203.247559 
	C1421.123657,1189.073364 1415.225586,1179.710693 1401.394531,1175.838867 
	C1384.243652,1171.037476 1366.583984,1170.469482 1349.090454,1170.290161 
	C1321.332886,1170.005493 1293.561890,1171.561523 1265.791504,1171.845703 
	C1247.496094,1172.032959 1229.192505,1171.265747 1210.890991,1171.081299 
	C1171.924805,1170.688477 1132.957764,1170.157471 1093.990723,1170.109253 
	C985.160583,1169.974365 876.330261,1170.056641 766.500000,1170.053101 
M220.813995,1074.201660 
	C219.173996,1087.440552 216.503418,1100.626343 219.075043,1114.059082 
	C220.597687,1122.012695 222.510529,1123.556641 230.585434,1123.750977 
	C244.025253,1124.074219 257.458160,1124.766479 270.898804,1124.949585 
	C286.388763,1125.160645 301.884094,1125.026855 317.376526,1124.939575 
	C319.683807,1124.926636 322.003937,1124.434814 324.289734,1124.011108 
	C327.755157,1123.368896 329.964935,1121.572510 330.155060,1117.706665 
	C330.722565,1106.169189 331.403290,1094.637451 332.040771,1083.103394 
	C332.369415,1077.156860 332.221161,1071.136597 333.123901,1065.278442 
	C335.416840,1050.398071 337.555481,1035.447388 340.905945,1020.787720 
	C345.677734,999.909241 350.766357,979.047607 357.041687,958.584229 
	C363.076843,938.903992 370.147552,919.477600 377.880981,900.392578 
	C418.683380,799.697754 477.272034,710.508789 552.524658,632.207642 
	C553.351624,631.347168 554.024780,630.338745 554.937988,629.187195 
	C547.594055,629.187195 540.670349,628.379517 534.000061,629.337219 
	C513.200256,632.323792 494.558075,641.103760 476.993164,652.293701 
	C446.378143,671.797363 420.313049,696.511658 396.441193,723.599365 
	C341.066681,786.433594 297.651031,856.865173 264.294495,933.553650 
	C256.987366,950.353271 250.344788,967.471191 244.127167,984.706238 
	C238.914246,999.156006 234.180115,1013.837463 230.313904,1028.697388 
	C226.492325,1043.385742 224.024155,1058.426025 220.813995,1074.201660 
M761.879578,458.533813 
	C731.831482,442.401245 701.980164,442.226959 673.195496,461.066833 
	C653.347595,474.057495 646.395935,497.041534 659.708374,517.308472 
	C664.221924,524.179871 669.478027,529.915955 679.094971,528.043945 
	C683.135620,527.257446 687.341492,527.081665 691.475159,527.052551 
	C707.472351,526.939819 723.471436,526.911133 739.468323,527.035645 
	C745.768921,527.084717 752.064453,527.817139 758.364807,527.858765 
	C762.425415,527.885620 767.382996,528.589478 770.394653,526.624023 
	C781.605957,519.307312 787.570557,501.333008 784.532959,487.942596 
	C781.567810,474.871674 773.132507,466.103424 761.879578,458.533813 
z"/>
<path fill="#020100" opacity="1.000000" stroke="none" 
	d="
M749.531372,0.999998 
	C750.978638,1.332606 751.934692,1.843721 752.939331,1.971139 
	C768.922180,3.998296 784.988647,5.503173 800.875732,8.106041 
	C815.173950,10.448607 829.528564,13.123911 843.408508,17.188520 
	C865.533203,23.667540 887.624268,30.547741 909.093872,38.893528 
	C928.655762,46.497749 947.720215,55.605190 966.371338,65.270691 
	C988.715149,76.849838 1010.277466,89.963692 1029.599121,106.247665 
	C1041.430786,116.219124 1053.088135,126.518150 1063.821045,137.637909 
	C1074.275635,148.469421 1082.963989,160.996429 1086.377808,175.999115 
	C1090.189575,192.750153 1088.870239,208.949402 1075.624512,221.685669 
	C1068.414795,228.618179 1059.348022,230.224777 1049.239136,229.215591 
	C1022.733765,226.569519 1002.048767,212.086914 981.619812,197.046387 
	C962.435730,182.922287 943.965576,167.796417 924.433044,154.185089 
	C895.788574,134.224045 863.792175,121.162338 829.927856,113.253044 
	C812.929504,109.282944 795.417786,107.381180 778.063721,105.114235 
	C768.144287,103.818459 758.083679,103.461563 748.071472,103.052956 
	C734.829163,102.512535 721.546570,101.668831 708.327820,102.173126 
	C692.297791,102.784676 676.246033,104.118439 660.334106,106.157440 
	C645.281860,108.086266 630.144043,110.374405 615.509827,114.259438 
	C599.769653,118.438065 584.362366,124.127541 569.184082,130.107712 
	C544.075989,140.000168 522.144531,155.423172 500.898163,171.728134 
	C485.276123,183.716858 470.400452,196.681152 454.726532,208.598251 
	C441.029266,219.012421 426.773895,228.761978 410.215729,234.315216 
	C397.846375,238.463638 386.380646,236.130066 376.542358,227.888168 
	C361.750427,215.496429 354.846161,199.047241 354.050568,180.002274 
	C353.588531,168.942154 358.232544,159.653931 366.218018,152.431915 
	C381.905853,138.243942 397.682983,124.121162 413.996460,110.666496 
	C437.963867,90.899185 464.456665,74.871704 491.677948,59.992931 
	C520.223267,44.390472 550.032654,31.682571 581.199402,22.603168 
	C601.561218,16.671431 622.426392,12.317035 643.248047,8.169391 
	C656.301758,5.569117 669.682678,4.575295 682.937317,3.037618 
	C688.486145,2.393894 694.088135,2.208543 699.833008,1.407396 
	C716.354248,1.000000 732.708435,1.000000 749.531372,0.999998 
M416.078827,122.562874 
	C401.081726,136.248199 385.890228,149.730896 371.244049,163.781998 
	C368.144806,166.755295 365.572113,171.703110 365.274231,175.919022 
	C364.110199,192.394638 370.002045,206.640701 381.968231,217.992401 
	C390.420563,226.010651 400.349304,227.563385 411.007721,222.362869 
	C415.491089,220.175293 420.252075,218.322876 424.268585,215.452866 
	C441.453735,203.173187 458.746277,191.001953 475.360809,177.976288 
	C495.816803,161.938950 515.995178,145.588242 538.733398,132.785980 
	C574.206055,112.813873 612.191467,100.308823 652.639038,96.105675 
	C676.618591,93.613808 700.744629,91.960487 724.840454,91.356865 
	C741.149841,90.948303 757.551331,92.677002 773.856262,94.088989 
	C788.140320,95.325981 802.466003,96.792908 816.563965,99.324135 
	C847.183960,104.821869 876.447327,114.594406 904.084839,129.081528 
	C930.805847,143.088242 954.223022,161.788467 977.831116,180.269501 
	C998.580750,196.512848 1019.562439,212.433151 1046.192749,218.152344 
	C1060.849487,221.300049 1072.699829,214.700882 1075.804199,200.024429 
	C1076.515869,196.660309 1076.860474,193.173355 1076.952393,189.731674 
	C1077.237671,179.038620 1073.910278,169.156738 1067.537842,160.910721 
	C1059.121338,150.019714 1050.389160,139.150986 1040.419556,129.725098 
	C1014.943726,105.638641 985.341980,87.283585 954.250854,71.401115 
	C905.152832,46.320038 853.866638,27.430323 799.143616,19.033615 
	C780.301697,16.142515 761.325073,12.819305 742.352417,12.418457 
	C717.880066,11.901415 693.246704,13.054541 668.869385,15.416069 
	C634.032776,18.790823 600.114990,27.156551 567.044312,38.733150 
	C512.154419,57.947720 462.474182,86.565117 416.078827,122.562874 
z"/>
<path fill="#FFFFFF" opacity="1.000000" stroke="none" 
	d="
M1.000002,1211.468628 
	C3.681859,1218.782349 5.416960,1227.069336 9.240972,1234.242920 
	C17.407215,1249.561646 30.500629,1258.261963 48.223972,1258.980347 
	C66.883141,1259.737061 85.546288,1260.422119 104.213043,1260.949219 
	C110.110733,1261.115845 112.565468,1264.925781 115.119606,1269.354736 
	C118.638458,1275.456543 122.851059,1281.134155 129.733521,1283.880493 
	C132.240219,1284.880737 134.952301,1285.792969 137.609177,1285.916260 
	C149.015289,1286.446045 160.434418,1286.724243 171.851273,1286.987305 
	C188.596558,1287.373047 205.344925,1287.625610 222.090088,1288.015747 
	C233.007339,1288.270020 243.920471,1288.696411 254.836868,1288.993164 
	C268.246887,1289.357666 281.658539,1289.661133 295.069183,1290.002686 
	C307.817413,1290.327393 320.564636,1290.692383 333.313354,1290.994141 
	C348.559784,1291.354980 363.807709,1291.653076 379.054352,1292.004883 
	C392.632233,1292.318115 406.208221,1292.724243 419.787018,1292.987061 
	C439.694336,1293.372803 459.603333,1293.673950 479.511841,1293.998901 
	C500.419373,1294.340210 521.326782,1294.691650 542.234863,1294.994263 
	C567.140625,1295.354492 592.046509,1295.718262 616.953308,1295.988281 
	C652.188293,1296.370239 687.424194,1296.666870 722.659607,1297.008911 
	C723.320374,1297.015259 723.980164,1297.131470 724.820190,1297.598145 
	C483.796875,1298.000000 242.593750,1298.000000 1.390628,1297.995483 
	C1.260424,1297.995483 1.130215,1297.927246 1.000003,1297.890869 
	C1.000000,1269.239624 1.000000,1240.588501 1.000002,1211.468628 
z"/>
<path fill="#FFFFFF" opacity="1.000000" stroke="none" 
	d="
M974.468628,1298.000000 
	C975.486267,1297.666870 976.970398,1297.056763 978.459229,1297.044922 
	C988.954468,1296.961182 999.451477,1297.079956 1009.946533,1296.985718 
	C1042.516724,1296.692993 1075.086914,1296.389771 1107.655640,1295.974854 
	C1121.401733,1295.799683 1135.144775,1295.359985 1148.887939,1294.994141 
	C1159.967407,1294.699341 1171.047119,1294.390747 1182.122925,1293.988281 
	C1199.120728,1293.370728 1216.117310,1292.717163 1233.110474,1291.985107 
	C1246.779297,1291.396240 1260.450684,1290.809326 1274.104736,1289.961914 
	C1287.200684,1289.149048 1300.407104,1288.823364 1313.321655,1286.760620 
	C1325.221191,1284.860107 1332.601685,1276.736328 1336.085815,1265.040161 
	C1338.734985,1256.147339 1338.963989,1256.082397 1347.634399,1256.029541 
	C1363.967896,1255.929932 1380.327881,1256.561890 1396.628540,1255.822998 
	C1409.639160,1255.233276 1422.042236,1251.350586 1432.395630,1242.964355 
	C1439.448486,1237.251709 1442.981689,1229.530029 1443.009277,1220.328491 
	C1443.020264,1216.669067 1443.129150,1213.009766 1443.596680,1209.175293 
	C1444.000000,1238.643433 1444.000000,1268.286865 1444.000000,1298.000000 
	C1287.645752,1298.000000 1131.291504,1298.000000 974.468628,1298.000000 
z"/>
<path fill="#020100" opacity="1.000000" stroke="none" 
	d="
M648.163208,161.016586 
	C663.788879,158.006714 678.969971,154.902634 694.204773,152.089905 
	C698.536438,151.290192 703.020569,151.267212 707.442017,151.014374 
	C714.356079,150.619003 721.316223,149.698013 728.185608,150.130569 
	C742.210754,151.013748 756.203613,152.509125 770.182373,154.007751 
	C793.219727,156.477570 815.298523,162.997101 837.065796,170.581589 
	C869.407898,181.850677 899.602478,197.349884 927.632080,217.085449 
	C944.282532,228.809021 961.557251,239.700485 975.449280,254.915024 
	C985.454163,265.872437 991.657043,278.538788 990.862610,293.515900 
	C989.983154,310.095795 980.770813,327.526733 964.224976,332.412598 
	C952.494873,335.876404 941.849243,332.971558 931.527405,327.930908 
	C914.576233,319.652802 900.722595,307.076691 886.413208,295.076233 
	C871.299561,282.401276 855.288147,270.971558 837.235840,262.616180 
	C821.238098,255.211823 804.499573,250.471191 787.283569,246.932404 
	C758.918457,241.101852 730.205505,241.363922 701.564270,242.223969 
	C681.644043,242.822128 661.936096,246.423141 642.720886,252.051788 
	C612.252014,260.976929 585.583618,277.293732 559.569946,294.899231 
	C546.760132,303.568634 534.076660,312.473236 520.843506,320.454895 
	C507.704742,328.379639 495.946045,330.908875 480.560120,319.166656 
	C466.893616,308.736633 459.306793,294.902588 458.131622,277.850983 
	C457.711487,271.754364 460.371796,266.217468 464.771057,261.719543 
	C484.135590,241.920715 506.570648,226.229614 530.152466,211.901993 
	C562.431580,192.290146 596.519104,176.875137 632.593811,165.781128 
	C637.650696,164.225998 642.690979,162.617004 648.163208,161.016586 
M737.437256,230.927094 
	C753.494934,232.600861 769.577087,234.071350 785.604675,235.995560 
	C810.202148,238.948639 833.053467,247.305847 854.689148,259.173798 
	C874.854614,270.235291 891.834473,285.573822 909.512146,299.987122 
	C920.635925,309.056793 932.136963,317.554901 946.131958,321.898407 
	C956.317383,325.059540 966.883362,321.898163 972.857117,312.970612 
	C981.757446,299.669373 982.235046,285.544434 974.072571,271.936005 
	C970.118225,265.343323 964.812195,259.157013 958.917419,254.220688 
	C948.216064,245.259369 936.731628,237.210419 925.372986,229.060806 
	C874.584167,192.621078 818.193420,170.091110 756.062195,163.192764 
	C738.360901,161.227417 720.212036,162.255966 702.339355,163.222168 
	C689.599121,163.910950 676.824646,166.092041 664.329956,168.818863 
	C616.702515,179.213043 572.679565,198.561691 531.282471,224.026428 
	C510.094391,237.059906 489.850128,251.417786 472.835968,269.785706 
	C470.897400,271.878540 469.056213,275.296906 469.261475,277.938110 
	C470.512482,294.034210 478.819702,305.929565 492.680206,313.883942 
	C497.899567,316.879303 503.569794,316.892242 508.951996,313.957184 
	C514.645813,310.852234 520.404053,307.813263 525.829895,304.278503 
	C543.129639,293.008392 560.170227,281.338318 577.526794,270.157898 
	C609.320984,249.677414 644.100952,237.066605 681.695923,233.235031 
	C699.838928,231.385956 718.193909,231.617828 737.437256,230.927094 
z"/>
<path fill="#020100" opacity="1.000000" stroke="none" 
	d="
M643.760254,405.742126 
	C637.732239,411.106781 632.139160,416.446960 626.136536,421.278259 
	C615.037170,430.211731 602.245300,430.752716 589.105835,427.485260 
	C584.053711,426.228912 579.085022,424.201996 574.440308,421.820374 
	C557.472595,413.120056 555.922241,389.981201 562.342468,376.119507 
	C571.189453,357.018341 586.235413,343.664978 603.253235,332.439087 
	C629.572205,315.077454 658.488708,303.760468 689.497070,298.068848 
	C701.144592,295.930939 712.904846,293.853790 724.696106,293.169464 
	C747.886841,291.823486 770.186340,296.865662 792.019226,304.454681 
	C816.123779,312.833435 838.042053,325.195984 858.098938,340.768494 
	C869.358154,349.510345 878.927368,359.882141 885.553894,372.887543 
	C896.188538,393.759399 881.567200,424.189392 857.766479,427.217407 
	C843.306763,429.057037 832.182983,423.245850 821.103760,415.657867 
	C809.143555,407.466553 797.494507,398.648102 784.831604,391.704590 
	C772.350342,384.860748 758.294800,381.728119 743.960449,381.058746 
	C731.060730,380.456390 718.116821,379.706390 705.231567,380.152740 
	C686.894226,380.787964 669.536377,385.518921 654.341919,396.335907 
	C650.615051,398.989044 647.439453,402.416595 643.760254,405.742126 
M588.166443,358.661835 
	C579.877991,367.259186 572.664978,376.442200 569.929810,388.511871 
	C568.134644,396.433411 571.383423,406.657959 578.307861,411.257416 
	C589.430847,418.645752 608.914429,422.993225 622.176392,410.467438 
	C625.323181,407.495331 628.835815,404.885437 631.801270,401.750519 
	C650.216980,382.281799 672.503662,371.638580 699.461182,369.798553 
	C720.269531,368.378235 740.871338,368.597321 761.350586,372.403809 
	C782.597351,376.352997 801.084656,386.178711 818.059448,399.373505 
	C825.247986,404.961273 832.903870,410.188171 840.985779,414.334778 
	C856.560181,422.325562 872.247192,411.546387 876.595947,397.768463 
	C880.090759,386.695862 876.939148,377.260925 870.035706,368.530151 
	C857.398132,352.547363 841.201050,340.954681 823.683167,331.084991 
	C793.966980,314.342804 762.378052,303.238586 727.910156,304.315887 
	C712.230835,304.805969 696.401611,307.582214 681.086609,311.207062 
	C646.622314,319.364258 614.943420,333.605957 588.166443,358.661835 
z"/>
<path fill="#BA1E09" opacity="1.000000" stroke="none" 
	d="
M336.924194,1131.964233 
	C342.307495,1125.663330 343.972107,1117.991699 343.874847,1110.126465 
	C343.302673,1063.845825 352.325439,1019.114624 365.126984,974.954895 
	C376.119720,937.034668 390.346100,900.367004 407.057861,864.603027 
	C421.735626,833.191956 438.677856,803.070435 457.113251,773.749695 
	C475.269928,744.872131 494.994263,717.061584 516.937073,690.993042 
	C534.156860,670.535583 552.797729,651.269409 570.936096,631.592773 
	C576.764709,625.269836 575.964355,621.161133 567.622498,618.803711 
	C551.010437,614.109131 534.451355,615.371948 518.011475,619.876465 
	C490.025696,627.544434 466.122314,642.767456 443.903168,660.773010 
	C431.911591,670.490601 420.058533,680.549927 409.314636,691.594788 
	C394.846527,706.468262 380.740997,721.834045 367.878662,738.095032 
	C351.612030,758.659851 335.852692,779.750610 321.533295,801.696777 
	C306.561523,824.642822 293.058838,848.597656 279.807739,872.604736 
	C258.292145,911.584656 241.531921,952.692261 227.595566,994.940186 
	C219.168076,1020.487976 212.217468,1046.458984 208.271759,1073.100342 
	C205.988022,1088.520142 203.983109,1104.113281 208.021576,1119.587769 
	C209.089493,1123.679810 211.153473,1127.511841 212.900513,1131.808594 
	C212.214569,1131.871582 211.174072,1132.051270 210.133774,1132.050049 
	C192.633850,1132.029663 175.130142,1132.193481 157.635590,1131.868164 
	C147.862122,1131.686401 138.110504,1130.435913 128.335541,1130.176636 
	C124.479019,1130.074341 123.346809,1128.239258 123.099213,1125.159302 
	C121.609200,1106.624390 120.315025,1088.152832 121.727699,1069.463989 
	C123.193748,1050.069092 125.793282,1030.942383 129.781952,1011.935669 
	C135.533432,984.528687 144.250229,958.080566 154.902069,932.232727 
	C174.868469,883.781921 201.700760,839.343933 233.705948,797.971436 
	C253.083176,772.922852 274.479736,749.645447 297.627899,728.071472 
	C322.455048,704.932678 349.490875,684.508179 377.311401,665.091309 
	C410.402710,641.995789 445.004913,621.511230 481.488373,604.271667 
	C522.364197,584.956543 564.806274,570.146301 609.355652,562.072998 
	C628.556091,558.593445 647.954346,555.440613 667.393188,554.224548 
	C695.087891,552.491943 722.932312,551.610107 750.656860,552.380066 
	C773.279907,553.008423 795.864075,556.232849 818.388367,558.945801 
	C852.927917,563.105957 886.512817,571.640442 919.437561,582.729309 
	C962.057617,597.083435 1002.170105,616.642456 1039.742065,641.394043 
	C1063.088379,656.774170 1085.382568,673.521790 1105.969482,692.458984 
	C1117.476196,703.043701 1129.490967,713.218445 1139.925293,724.796021 
	C1159.258667,746.247498 1178.176636,768.131470 1196.219116,790.674377 
	C1223.026245,824.167908 1244.697876,861.036865 1263.613159,899.464172 
	C1282.749146,938.339844 1298.351929,978.659180 1308.214233,1020.896606 
	C1313.287109,1042.622314 1316.702148,1064.781250 1319.879395,1086.886353 
	C1321.855713,1100.635620 1321.924561,1114.655151 1322.981812,1128.543335 
	C1323.296753,1132.681030 1321.736816,1133.990356 1317.590088,1134.087036 
	C1296.154663,1134.587402 1274.730591,1135.640869 1253.293945,1136.006226 
	C1222.163696,1136.537109 1191.026367,1136.866089 1159.891968,1136.866333 
	C1132.757446,1136.866577 1105.623169,1136.270142 1078.488403,1135.977661 
	C1044.354492,1135.609741 1010.219849,1135.300537 976.085876,1134.932739 
	C947.617981,1134.625977 919.151001,1134.232056 890.682922,1133.947632 
	C853.215698,1133.573242 815.748291,1133.081787 778.279968,1132.967285 
	C654.312744,1132.588623 530.345032,1132.305054 406.377380,1132.115234 
	C383.582123,1132.080322 360.785950,1132.654053 337.494537,1132.700195 
	C336.998871,1132.453613 336.924194,1131.964233 336.924194,1131.964233 
z"/>
<path fill="#BA1E09" opacity="1.000000" stroke="none" 
	d="
M767.000000,1170.053101 
	C876.330261,1170.056641 985.160583,1169.974365 1093.990723,1170.109253 
	C1132.957764,1170.157471 1171.924805,1170.688477 1210.890991,1171.081299 
	C1229.192505,1171.265747 1247.496094,1172.032959 1265.791504,1171.845703 
	C1293.561890,1171.561523 1321.332886,1170.005493 1349.090454,1170.290161 
	C1366.583984,1170.469482 1384.243652,1171.037476 1401.394531,1175.838867 
	C1415.225586,1179.710693 1421.123657,1189.073364 1418.544434,1203.247559 
	C1417.701782,1207.877686 1418.433350,1212.783203 1417.720825,1217.452393 
	C1417.346680,1219.903320 1415.993530,1223.024902 1414.066284,1224.267822 
	C1407.841309,1228.282593 1400.859741,1230.231567 1393.265015,1230.119629 
	C1378.768433,1229.905518 1364.264648,1229.867920 1349.768677,1230.084717 
	C1344.835205,1230.158447 1339.889771,1231.054321 1334.996460,1231.858765 
	C1324.141968,1233.643555 1318.005005,1240.892578 1314.029907,1250.480469 
	C1313.330933,1252.166626 1312.659180,1253.896118 1312.263306,1255.669800 
	C1311.241577,1260.247559 1308.759644,1261.967407 1303.831787,1262.169434 
	C1278.125122,1263.223999 1252.440674,1264.809692 1226.739990,1266.028198 
	C1209.315430,1266.854492 1191.880615,1267.517334 1174.443481,1268.008545 
	C1146.347046,1268.800293 1118.244995,1269.390259 1090.145264,1270.065308 
	C1077.011719,1270.380981 1063.878784,1270.935791 1050.744385,1270.975098 
	C926.613708,1271.347534 802.482971,1271.712036 678.351929,1271.885620 
	C647.552124,1271.928711 616.751038,1271.306519 585.951294,1270.923950 
	C564.316833,1270.655273 542.683472,1270.286621 521.049988,1269.939941 
	C501.249420,1269.622803 481.449005,1269.293579 461.649139,1268.935059 
	C444.848450,1268.630981 428.048431,1268.288086 411.248505,1267.942871 
	C395.614655,1267.621704 379.980988,1267.289917 364.347870,1266.934937 
	C350.880493,1266.628906 337.413635,1266.296265 323.947144,1265.952637 
	C298.013641,1265.290771 272.079407,1264.654175 246.147675,1263.928711 
	C224.712830,1263.329102 203.278214,1262.697510 181.849121,1261.924072 
	C168.743881,1261.451050 155.641846,1260.794556 142.558807,1259.915771 
	C140.808334,1259.798218 138.759689,1258.225098 137.570084,1256.746094 
	C133.836304,1252.103638 130.592316,1247.068604 126.882217,1242.405396 
	C123.328789,1237.939209 118.190857,1236.291138 112.733551,1236.089722 
	C99.106583,1235.586792 85.466591,1235.438721 71.839104,1234.947021 
	C63.885490,1234.660034 55.943935,1234.014404 48.000465,1233.478027 
	C40.416775,1232.965942 35.678322,1228.278687 31.859726,1222.304443 
	C24.435270,1210.689087 24.375076,1194.855957 31.917097,1184.221802 
	C38.045574,1175.580688 47.449142,1173.264038 57.151436,1172.037598 
	C107.701241,1165.648193 158.504593,1168.474121 209.214371,1168.140381 
	C229.844833,1168.004517 250.480347,1168.969971 271.114563,1169.020020 
	C436.242920,1169.420410 601.371460,1169.721558 767.000000,1170.053101 
z"/>
<path fill="#EDC8C1" opacity="1.000000" stroke="none" 
	d="
M220.888153,1073.756836 
	C224.024155,1058.426025 226.492325,1043.385742 230.313904,1028.697388 
	C234.180115,1013.837463 238.914246,999.156006 244.127167,984.706238 
	C250.344788,967.471191 256.987366,950.353271 264.294495,933.553650 
	C297.651031,856.865173 341.066681,786.433594 396.441193,723.599365 
	C420.313049,696.511658 446.378143,671.797363 476.993164,652.293701 
	C494.558075,641.103760 513.200256,632.323792 534.000061,629.337219 
	C540.670349,628.379517 547.594055,629.187195 554.937988,629.187195 
	C554.024780,630.338745 553.351624,631.347168 552.524658,632.207642 
	C477.272034,710.508789 418.683380,799.697754 377.880981,900.392578 
	C370.147552,919.477600 363.076843,938.903992 357.041687,958.584229 
	C350.766357,979.047607 345.677734,999.909241 340.905945,1020.787720 
	C337.555481,1035.447388 335.416840,1050.398071 333.123901,1065.278442 
	C332.221161,1071.136597 332.369415,1077.156860 332.040771,1083.103394 
	C331.403290,1094.637451 330.722565,1106.169189 330.155060,1117.706665 
	C329.964935,1121.572510 327.755157,1123.368896 324.289734,1124.011108 
	C322.003937,1124.434814 319.683807,1124.926636 317.376526,1124.939575 
	C301.884094,1125.026855 286.388763,1125.160645 270.898804,1124.949585 
	C257.458160,1124.766479 244.025253,1124.074219 230.585434,1123.750977 
	C222.510529,1123.556641 220.597687,1122.012695 219.075043,1114.059082 
	C216.503418,1100.626343 219.173996,1087.440552 220.888153,1073.756836 
z"/>
<path fill="#BA1E09" opacity="1.000000" stroke="none" 
	d="
M762.171265,458.752747 
	C773.132507,466.103424 781.567810,474.871674 784.532959,487.942596 
	C787.570557,501.333008 781.605957,519.307312 770.394653,526.624023 
	C767.382996,528.589478 762.425415,527.885620 758.364807,527.858765 
	C752.064453,527.817139 745.768921,527.084717 739.468323,527.035645 
	C723.471436,526.911133 707.472351,526.939819 691.475159,527.052551 
	C687.341492,527.081665 683.135620,527.257446 679.094971,528.043945 
	C669.478027,529.915955 664.221924,524.179871 659.708374,517.308472 
	C646.395935,497.041534 653.347595,474.057495 673.195496,461.066833 
	C701.980164,442.226959 731.831482,442.401245 762.171265,458.752747 
z"/>
<path fill="#940E04" opacity="1.000000" stroke="none" 
	d="
M336.760956,1132.070312 
	C336.924194,1131.964233 336.998871,1132.453613 337.029724,1132.698730 
	C336.906281,1132.687988 336.752014,1132.432129 336.760956,1132.070312 
z"/>
<path fill="#CE9904" opacity="1.000000" stroke="none" 
	d="
M416.360168,122.341095 
	C462.474182,86.565117 512.154419,57.947720 567.044312,38.733150 
	C600.114990,27.156551 634.032776,18.790823 668.869385,15.416069 
	C693.246704,13.054541 717.880066,11.901415 742.352417,12.418457 
	C761.325073,12.819305 780.301697,16.142515 799.143616,19.033615 
	C853.866638,27.430323 905.152832,46.320038 954.250854,71.401115 
	C985.341980,87.283585 1014.943726,105.638641 1040.419556,129.725098 
	C1050.389160,139.150986 1059.121338,150.019714 1067.537842,160.910721 
	C1073.910278,169.156738 1077.237671,179.038620 1076.952393,189.731674 
	C1076.860474,193.173355 1076.515869,196.660309 1075.804199,200.024429 
	C1072.699829,214.700882 1060.849487,221.300049 1046.192749,218.152344 
	C1019.562439,212.433151 998.580750,196.512848 977.831116,180.269501 
	C954.223022,161.788467 930.805847,143.088242 904.084839,129.081528 
	C876.447327,114.594406 847.183960,104.821869 816.563965,99.324135 
	C802.466003,96.792908 788.140320,95.325981 773.856262,94.088989 
	C757.551331,92.677002 741.149841,90.948303 724.840454,91.356865 
	C700.744629,91.960487 676.618591,93.613808 652.639038,96.105675 
	C612.191467,100.308823 574.206055,112.813873 538.733398,132.785980 
	C515.995178,145.588242 495.816803,161.938950 475.360809,177.976288 
	C458.746277,191.001953 441.453735,203.173187 424.268585,215.452866 
	C420.252075,218.322876 415.491089,220.175293 411.007721,222.362869 
	C400.349304,227.563385 390.420563,226.010651 381.968231,217.992401 
	C370.002045,206.640701 364.110199,192.394638 365.274231,175.919022 
	C365.572113,171.703110 368.144806,166.755295 371.244049,163.781998 
	C385.890228,149.730896 401.081726,136.248199 416.360168,122.341095 
z"/>
<path fill="#CE9804" opacity="1.000000" stroke="none" 
	d="
M736.945068,230.917267 
	C718.193909,231.617828 699.838928,231.385956 681.695923,233.235031 
	C644.100952,237.066605 609.320984,249.677414 577.526794,270.157898 
	C560.170227,281.338318 543.129639,293.008392 525.829895,304.278503 
	C520.404053,307.813263 514.645813,310.852234 508.951996,313.957184 
	C503.569794,316.892242 497.899567,316.879303 492.680206,313.883942 
	C478.819702,305.929565 470.512482,294.034210 469.261475,277.938110 
	C469.056213,275.296906 470.897400,271.878540 472.835968,269.785706 
	C489.850128,251.417786 510.094391,237.059906 531.282471,224.026428 
	C572.679565,198.561691 616.702515,179.213043 664.329956,168.818863 
	C676.824646,166.092041 689.599121,163.910950 702.339355,163.222168 
	C720.212036,162.255966 738.360901,161.227417 756.062195,163.192764 
	C818.193420,170.091110 874.584167,192.621078 925.372986,229.060806 
	C936.731628,237.210419 948.216064,245.259369 958.917419,254.220688 
	C964.812195,259.157013 970.118225,265.343323 974.072571,271.936005 
	C982.235046,285.544434 981.757446,299.669373 972.857117,312.970612 
	C966.883362,321.898163 956.317383,325.059540 946.131958,321.898407 
	C932.136963,317.554901 920.635925,309.056793 909.512146,299.987122 
	C891.834473,285.573822 874.854614,270.235291 854.689148,259.173798 
	C833.053467,247.305847 810.202148,238.948639 785.604675,235.995560 
	C769.577087,234.071350 753.494934,232.600861 736.945068,230.917267 
z"/>
<path fill="#CE9804" opacity="1.000000" stroke="none" 
	d="
M588.417480,358.415833 
	C614.943420,333.605957 646.622314,319.364258 681.086609,311.207062 
	C696.401611,307.582214 712.230835,304.805969 727.910156,304.315887 
	C762.378052,303.238586 793.966980,314.342804 823.683167,331.084991 
	C841.201050,340.954681 857.398132,352.547363 870.035706,368.530151 
	C876.939148,377.260925 880.090759,386.695862 876.595947,397.768463 
	C872.247192,411.546387 856.560181,422.325562 840.985779,414.334778 
	C832.903870,410.188171 825.247986,404.961273 818.059448,399.373505 
	C801.084656,386.178711 782.597351,376.352997 761.350586,372.403809 
	C740.871338,368.597321 720.269531,368.378235 699.461182,369.798553 
	C672.503662,371.638580 650.216980,382.281799 631.801270,401.750519 
	C628.835815,404.885437 625.323181,407.495331 622.176392,410.467438 
	C608.914429,422.993225 589.430847,418.645752 578.307861,411.257416 
	C571.383423,406.657959 568.134644,396.433411 569.929810,388.511871 
	C572.664978,376.442200 579.877991,367.259186 588.417480,358.415833 
z"/>
</svg>